<svg width="52" height="46" viewBox="0 0 52 46" fill="none" xmlns="http://www.w3.org/2000/svg">
<path d="M10.3994 1.77304L10.3994 3.27304L10.3994 3.27304L10.3994 1.77304ZM40.3994 31.773L41.8994 31.7731L40.3994 31.773ZM39.3388 44.6614C39.9246 45.2471 40.8743 45.2471 41.4601 44.6614L51.006 35.1154C51.5918 34.5296 51.5918 33.5799 51.006 32.9941C50.4202 32.4083 49.4705 32.4083 48.8847 32.9941L40.3994 41.4794L31.9142 32.9941C31.3284 32.4083 30.3786 32.4083 29.7928 32.9941C29.207 33.5799 29.207 34.5296 29.7928 35.1154L39.3388 44.6614ZM0.170793 3.27306L10.3994 3.27304L10.3994 0.273039L0.170786 0.273058L0.170793 3.27306ZM38.8994 31.773L38.8994 43.6007L41.8994 43.6007L41.8994 31.7731L38.8994 31.773ZM10.3994 3.27304C26.1395 3.27301 38.8994 16.0329 38.8994 31.773L41.8994 31.7731C41.8994 14.3761 27.7964 0.273003 10.3994 0.273039L10.3994 3.27304Z" fill="#D43F8C"/>
</svg>
