<svg width="167" height="50" viewBox="0 0 167 50" fill="none" xmlns="http://www.w3.org/2000/svg">
<path d="M0 3C0 1.34315 1.34315 0 3 0H25V47C25 48.6569 23.6569 50 22 50H3C1.34315 50 0 48.6569 0 47V3Z" fill="#D43F8C"/>
<path d="M24 0H29C30.6569 0 32 1.34315 32 3V27C32 28.6569 30.6569 30 29 30H24V0Z" fill="#D43F8C"/>
<path d="M12.1677 37.6216L13.3899 38.0567L13.8709 38.185C14.4373 38.3362 15.0499 38.2044 15.531 37.8373C16.7314 36.9215 17.835 36.2104 18.8909 35.6634C20.7956 34.6768 22.9829 35.3917 24.3649 36.8673L24.5 37.0115V37.2091V41.1854V41.3725L24.3772 41.5136C23.6602 42.3377 23.0065 42.8986 22.242 43.3263C21.4851 43.7498 20.6438 44.0287 19.5797 44.3187L19.5593 44.3242L19.5384 44.3281C18.321 44.5513 17.6208 44.5632 16.4621 44.3283C15.5532 44.181 14.8218 43.9293 14.1577 43.3802C12.6468 42.1308 11.5 40.1122 11.5 38.0927V37.384L12.1677 37.6216Z" fill="white" stroke="white"/>
<path d="M37.8323 37.6216L36.6101 38.0567L36.1291 38.185C35.5627 38.3362 34.9501 38.2044 34.469 37.8373C33.2686 36.9215 32.165 36.2104 31.1091 35.6634C29.2044 34.6768 27.0171 35.3917 25.6351 36.8673L25.5 37.0115V37.2091V41.1854V41.3725L25.6228 41.5136C26.3398 42.3377 26.9935 42.8986 27.758 43.3263C28.5149 43.7498 29.3562 44.0287 30.4203 44.3187L30.4407 44.3242L30.4616 44.3281C31.679 44.5513 32.3792 44.5632 33.5379 44.3283C34.4468 44.181 35.1782 43.9293 35.8423 43.3802C37.3532 42.1308 38.5 40.1122 38.5 38.0927V37.384L37.8323 37.6216Z" fill="#D43F8C" stroke="#D43F8C"/>
<circle cx="16" cy="15" r="8" fill="white"/>
<circle cx="16" cy="15" r="5" fill="#D43F8C"/>
<rect x="4" y="25.2895" width="10.3089" height="3.40801" transform="rotate(-45 4 25.2895)" fill="white"/>
<circle cx="40" cy="15" r="5" fill="#D43F8C"/>
<path d="M57.1385 37.504C55.4105 37.504 53.8385 37.144 52.4225 36.424C51.0305 35.704 49.9265 34.66 49.1105 33.292C48.2945 31.924 47.8865 30.268 47.8865 28.324V27.82C47.8865 25.876 48.2945 24.22 49.1105 22.852C49.9265 21.484 51.0305 20.44 52.4225 19.72C53.8385 19 55.4105 18.64 57.1385 18.64C58.8425 18.64 60.3065 18.94 61.5305 19.54C62.7545 20.14 63.7385 20.968 64.4825 22.024C65.2505 23.056 65.7545 24.232 65.9945 25.552L61.6025 26.488C61.5065 25.768 61.2905 25.12 60.9545 24.544C60.6185 23.968 60.1385 23.512 59.5145 23.176C58.9145 22.84 58.1585 22.672 57.2465 22.672C56.3345 22.672 55.5065 22.876 54.7625 23.284C54.0425 23.668 53.4665 24.256 53.0345 25.048C52.6265 25.816 52.4225 26.764 52.4225 27.892V28.252C52.4225 29.38 52.6265 30.34 53.0345 31.132C53.4665 31.9 54.0425 32.488 54.7625 32.896C55.5065 33.28 56.3345 33.472 57.2465 33.472C58.6145 33.472 59.6465 33.124 60.3425 32.428C61.0625 31.708 61.5185 30.772 61.7105 29.62L66.1025 30.664C65.7905 31.936 65.2505 33.1 64.4825 34.156C63.7385 35.188 62.7545 36.004 61.5305 36.604C60.3065 37.204 58.8425 37.504 57.1385 37.504ZM69.8442 37V11.8H74.3802V37H69.8442ZM86.2107 37.288C84.8187 37.288 83.5947 36.976 82.5387 36.352C81.5067 35.704 80.7027 34.816 80.1267 33.688C79.5507 32.56 79.2627 31.264 79.2627 29.8V19.144H83.7987V29.44C83.7987 30.784 84.1227 31.792 84.7707 32.464C85.4427 33.136 86.3907 33.472 87.6147 33.472C89.0067 33.472 90.0867 33.016 90.8547 32.104C91.6227 31.168 92.0067 29.872 92.0067 28.216V19.144H96.5427V37H92.0787V34.66H91.4307C91.1427 35.26 90.6027 35.848 89.8107 36.424C89.0187 37 87.8187 37.288 86.2107 37.288ZM109.726 37.504C107.95 37.504 106.378 37.132 105.01 36.388C103.666 35.62 102.61 34.552 101.842 33.184C101.098 31.792 100.726 30.16 100.726 28.288V27.856C100.726 25.984 101.098 24.364 101.842 22.996C102.586 21.604 103.63 20.536 104.974 19.792C106.318 19.024 107.878 18.64 109.654 18.64C111.406 18.64 112.93 19.036 114.226 19.828C115.522 20.596 116.53 21.676 117.25 23.068C117.97 24.436 118.33 26.032 118.33 27.856V29.404H105.334C105.382 30.628 105.838 31.624 106.702 32.392C107.566 33.16 108.622 33.544 109.87 33.544C111.142 33.544 112.078 33.268 112.678 32.716C113.278 32.164 113.734 31.552 114.046 30.88L117.754 32.824C117.418 33.448 116.926 34.132 116.278 34.876C115.654 35.596 114.814 36.22 113.758 36.748C112.702 37.252 111.358 37.504 109.726 37.504ZM105.37 26.02H113.722C113.626 24.988 113.206 24.16 112.462 23.536C111.742 22.912 110.794 22.6 109.618 22.6C108.394 22.6 107.422 22.912 106.702 23.536C105.982 24.16 105.538 24.988 105.37 26.02ZM129.784 37.504C127.456 37.504 125.548 37 124.06 35.992C122.572 34.984 121.672 33.544 121.36 31.672L125.536 30.592C125.704 31.432 125.98 32.092 126.364 32.572C126.772 33.052 127.264 33.4 127.84 33.616C128.44 33.808 129.088 33.904 129.784 33.904C130.84 33.904 131.62 33.724 132.124 33.364C132.628 32.98 132.88 32.512 132.88 31.96C132.88 31.408 132.64 30.988 132.16 30.7C131.68 30.388 130.912 30.136 129.856 29.944L128.848 29.764C127.6 29.524 126.46 29.2 125.428 28.792C124.396 28.36 123.568 27.772 122.944 27.028C122.32 26.284 122.008 25.324 122.008 24.148C122.008 22.372 122.656 21.016 123.952 20.08C125.248 19.12 126.952 18.64 129.064 18.64C131.056 18.64 132.712 19.084 134.032 19.972C135.352 20.86 136.216 22.024 136.624 23.464L132.412 24.76C132.22 23.848 131.824 23.2 131.224 22.816C130.648 22.432 129.928 22.24 129.064 22.24C128.2 22.24 127.54 22.396 127.084 22.708C126.628 22.996 126.4 23.404 126.4 23.932C126.4 24.508 126.64 24.94 127.12 25.228C127.6 25.492 128.248 25.696 129.064 25.84L130.072 26.02C131.416 26.26 132.628 26.584 133.708 26.992C134.812 27.376 135.676 27.94 136.3 28.684C136.948 29.404 137.272 30.388 137.272 31.636C137.272 33.508 136.588 34.96 135.22 35.992C133.876 37 132.064 37.504 129.784 37.504ZM149.743 37.504C147.967 37.504 146.371 37.144 144.955 36.424C143.539 35.704 142.423 34.66 141.607 33.292C140.791 31.924 140.383 30.28 140.383 28.36V27.784C140.383 25.864 140.791 24.22 141.607 22.852C142.423 21.484 143.539 20.44 144.955 19.72C146.371 19 147.967 18.64 149.743 18.64C151.519 18.64 153.115 19 154.531 19.72C155.947 20.44 157.063 21.484 157.879 22.852C158.695 24.22 159.103 25.864 159.103 27.784V28.36C159.103 30.28 158.695 31.924 157.879 33.292C157.063 34.66 155.947 35.704 154.531 36.424C153.115 37.144 151.519 37.504 149.743 37.504ZM149.743 33.472C151.135 33.472 152.287 33.028 153.199 32.14C154.111 31.228 154.567 29.932 154.567 28.252V27.892C154.567 26.212 154.111 24.928 153.199 24.04C152.311 23.128 151.159 22.672 149.743 22.672C148.351 22.672 147.199 23.128 146.287 24.04C145.375 24.928 144.919 26.212 144.919 27.892V28.252C144.919 29.932 145.375 31.228 146.287 32.14C147.199 33.028 148.351 33.472 149.743 33.472Z" fill="#D43F8C"/>
</svg>
